# xmcd CD database file
#
# Track frame offsets:
#	150
#	15945
#	36811
#	53224
#	73460
#	99544
#	121961
#	137326
#	158086
#	180450
#	200077
#	220926
#	236229
#	260933
#	280844
#	290462
#
# Disc length: 4544 seconds
#
# Revision: 1
# Processed by: cddbd v1.5.2PL0 Copyright (c) Steve Scherf et al.
# Submitted via: CDex 1.51
#
DISCID=f311be10
DTITLE=Gollo and Frënn - Live and Lieweg
DYEAR=2006
DGENRE=New Age
TTITLE0=Vum Lämmes gebass
TTITLE1=5 vir 12
TTITLE2=Dat ass schued
TTITLE3=Beschäftigungstherapi
TTITLE4=Summer um Stauséi
TTITLE5=Feierowend Reggae
TTITLE6=Dëst sollt een Instrumental sinn
TTITLE7=E Bild vun engem Mann
TTITLE8=Eng Rees am Krees
TTITLE9=Ka komme wat wëllt
TTITLE10=Komm lo
TTITLE11=Carolina
TTITLE12=4 Wochen
TTITLE13=Meedchen aus dem Éislek
TTITLE14=Virstellung vun de Musekerfrënn
TTITLE15=Keng Drëpp drop
EXTD=YEAR: 2006
EXTT0=
EXTT1=
EXTT2=
EXTT3=
EXTT4=
EXTT5=
EXTT6=
EXTT7=
EXTT8=
EXTT9=
EXTT10=
EXTT11=
EXTT12=
EXTT13=
EXTT14=
EXTT15=
PLAYORDER=
